<mxfile host="65bd71144e">
    <diagram id="3cUGU1u6pG_o_R58JLAc" name="v1">
        <mxGraphModel dx="2169" dy="1869" grid="1" gridSize="10" guides="1" tooltips="1" connect="1" arrows="1" fold="1" page="1" pageScale="1" pageWidth="850" pageHeight="1100" math="0" shadow="0">
            <root>
                <mxCell id="0"/>
                <mxCell id="1" parent="0"/>
                <mxCell id="2" value="SignUp" style="ellipse;whiteSpace=wrap;html=1;" parent="1" vertex="1">
                    <mxGeometry x="180" y="-770" width="120" height="80" as="geometry"/>
                </mxCell>
                <mxCell id="4" value="Student" style="shape=umlActor;verticalLabelPosition=bottom;verticalAlign=top;html=1;outlineConnect=0;" parent="1" vertex="1">
                    <mxGeometry x="120" y="110" width="30" height="60" as="geometry"/>
                </mxCell>
                <mxCell id="30" style="edgeStyle=orthogonalEdgeStyle;curved=1;rounded=0;orthogonalLoop=1;jettySize=auto;html=1;entryX=1;entryY=0.5;entryDx=0;entryDy=0;" edge="1" parent="1" source="5" target="2">
                    <mxGeometry relative="1" as="geometry"/>
                </mxCell>
                <mxCell id="31" style="edgeStyle=orthogonalEdgeStyle;curved=1;rounded=0;orthogonalLoop=1;jettySize=auto;html=1;entryX=1;entryY=0.5;entryDx=0;entryDy=0;" edge="1" parent="1" source="5" target="8">
                    <mxGeometry relative="1" as="geometry"/>
                </mxCell>
                <mxCell id="32" style="edgeStyle=orthogonalEdgeStyle;curved=1;rounded=0;orthogonalLoop=1;jettySize=auto;html=1;entryX=1;entryY=0.5;entryDx=0;entryDy=0;" edge="1" parent="1" source="5" target="29">
                    <mxGeometry relative="1" as="geometry"/>
                </mxCell>
                <mxCell id="33" style="edgeStyle=orthogonalEdgeStyle;curved=1;rounded=0;orthogonalLoop=1;jettySize=auto;html=1;entryX=1;entryY=0.5;entryDx=0;entryDy=0;" edge="1" parent="1" source="5" target="27">
                    <mxGeometry relative="1" as="geometry"/>
                </mxCell>
                <mxCell id="34" style="edgeStyle=orthogonalEdgeStyle;curved=1;rounded=0;orthogonalLoop=1;jettySize=auto;html=1;entryX=1;entryY=0.5;entryDx=0;entryDy=0;" edge="1" parent="1" source="5" target="28">
                    <mxGeometry relative="1" as="geometry"/>
                </mxCell>
                <mxCell id="5" value="User" style="shape=umlActor;verticalLabelPosition=bottom;verticalAlign=top;html=1;outlineConnect=0;" parent="1" vertex="1">
                    <mxGeometry x="460" y="-570" width="30" height="60" as="geometry"/>
                </mxCell>
                <mxCell id="7" value="Instructor" style="shape=umlActor;verticalLabelPosition=bottom;verticalAlign=top;html=1;outlineConnect=0;" parent="1" vertex="1">
                    <mxGeometry x="940" y="110" width="30" height="60" as="geometry"/>
                </mxCell>
                <mxCell id="8" value="SignIn" style="ellipse;whiteSpace=wrap;html=1;" vertex="1" parent="1">
                    <mxGeometry x="50" y="-690" width="120" height="80" as="geometry"/>
                </mxCell>
                <mxCell id="9" value="Create&lt;br&gt;Assignment" style="ellipse;whiteSpace=wrap;html=1;" vertex="1" parent="1">
                    <mxGeometry x="425" y="90" width="120" height="80" as="geometry"/>
                </mxCell>
                <mxCell id="11" value="Edit&lt;br&gt;Assignment" style="ellipse;whiteSpace=wrap;html=1;" vertex="1" parent="1">
                    <mxGeometry x="425" y="180" width="120" height="80" as="geometry"/>
                </mxCell>
                <mxCell id="12" value="Create&lt;br&gt;Questions" style="ellipse;whiteSpace=wrap;html=1;" vertex="1" parent="1">
                    <mxGeometry x="610" y="70" width="120" height="80" as="geometry"/>
                </mxCell>
                <mxCell id="13" value="Edit Question" style="ellipse;whiteSpace=wrap;html=1;" vertex="1" parent="1">
                    <mxGeometry x="610" y="160" width="120" height="80" as="geometry"/>
                </mxCell>
                <mxCell id="14" value="Delete&lt;br&gt;Question" style="ellipse;whiteSpace=wrap;html=1;" vertex="1" parent="1">
                    <mxGeometry x="610" y="250" width="120" height="80" as="geometry"/>
                </mxCell>
                <mxCell id="15" value="Publish&lt;br&gt;Assignment" style="ellipse;whiteSpace=wrap;html=1;" vertex="1" parent="1">
                    <mxGeometry x="425" y="270" width="120" height="80" as="geometry"/>
                </mxCell>
                <mxCell id="16" value="Publish&lt;br&gt;Assignment" style="ellipse;whiteSpace=wrap;html=1;" vertex="1" parent="1">
                    <mxGeometry x="425" y="360" width="120" height="80" as="geometry"/>
                </mxCell>
                <mxCell id="17" value="View&lt;br&gt;Assignment" style="ellipse;whiteSpace=wrap;html=1;" vertex="1" parent="1">
                    <mxGeometry x="425" y="-20" width="120" height="80" as="geometry"/>
                </mxCell>
                <mxCell id="18" value="View All&lt;br&gt;Assignment" style="ellipse;whiteSpace=wrap;html=1;" vertex="1" parent="1">
                    <mxGeometry x="425" y="-110" width="120" height="80" as="geometry"/>
                </mxCell>
                <mxCell id="19" value="View Question&lt;br&gt;Preview" style="ellipse;whiteSpace=wrap;html=1;" vertex="1" parent="1">
                    <mxGeometry x="610" y="-20" width="120" height="80" as="geometry"/>
                </mxCell>
                <mxCell id="20" value="View All&lt;br&gt;Question" style="ellipse;whiteSpace=wrap;html=1;" vertex="1" parent="1">
                    <mxGeometry x="610" y="-110" width="120" height="80" as="geometry"/>
                </mxCell>
                <mxCell id="47" style="edgeStyle=orthogonalEdgeStyle;curved=1;rounded=0;orthogonalLoop=1;jettySize=auto;html=1;entryX=0;entryY=1;entryDx=0;entryDy=0;dashed=1;startArrow=openThin;startFill=0;endArrow=none;endFill=0;exitX=0;exitY=0.5;exitDx=0;exitDy=0;" edge="1" parent="1" source="27" target="29">
                    <mxGeometry relative="1" as="geometry"/>
                </mxCell>
                <mxCell id="54" value="&amp;lt;&amp;lt;extends&amp;gt;&amp;gt;" style="edgeLabel;html=1;align=center;verticalAlign=middle;resizable=0;points=[];" vertex="1" connectable="0" parent="47">
                    <mxGeometry x="0.3624" y="-7" relative="1" as="geometry">
                        <mxPoint x="-5" y="-4" as="offset"/>
                    </mxGeometry>
                </mxCell>
                <mxCell id="27" value="Change&lt;br&gt;User Details" style="ellipse;whiteSpace=wrap;html=1;" vertex="1" parent="1">
                    <mxGeometry x="60" y="-460" width="120" height="80" as="geometry"/>
                </mxCell>
                <mxCell id="28" value="Reset Password" style="ellipse;whiteSpace=wrap;html=1;" vertex="1" parent="1">
                    <mxGeometry x="140" y="-360" width="120" height="80" as="geometry"/>
                </mxCell>
                <mxCell id="29" value="View&lt;br&gt;User Profile" style="ellipse;whiteSpace=wrap;html=1;" vertex="1" parent="1">
                    <mxGeometry x="-10" y="-580" width="120" height="80" as="geometry"/>
                </mxCell>
                <mxCell id="35" value="Enable/Disable&lt;br&gt;User Account" style="ellipse;whiteSpace=wrap;html=1;" vertex="1" parent="1">
                    <mxGeometry x="820" y="-580" width="120" height="80" as="geometry"/>
                </mxCell>
                <mxCell id="36" value="View All Users" style="ellipse;whiteSpace=wrap;html=1;" vertex="1" parent="1">
                    <mxGeometry x="820" y="-680" width="120" height="80" as="geometry"/>
                </mxCell>
                <mxCell id="37" value="Verify User&lt;br&gt;Account" style="ellipse;whiteSpace=wrap;html=1;" vertex="1" parent="1">
                    <mxGeometry x="820" y="-480" width="120" height="80" as="geometry"/>
                </mxCell>
                <mxCell id="44" style="edgeStyle=orthogonalEdgeStyle;curved=1;rounded=0;orthogonalLoop=1;jettySize=auto;html=1;entryX=0;entryY=0.5;entryDx=0;entryDy=0;" edge="1" parent="1" source="38" target="36">
                    <mxGeometry relative="1" as="geometry"/>
                </mxCell>
                <mxCell id="45" style="edgeStyle=orthogonalEdgeStyle;curved=1;rounded=0;orthogonalLoop=1;jettySize=auto;html=1;entryX=0;entryY=0.5;entryDx=0;entryDy=0;" edge="1" parent="1" source="38" target="35">
                    <mxGeometry relative="1" as="geometry"/>
                </mxCell>
                <mxCell id="46" style="edgeStyle=orthogonalEdgeStyle;curved=1;rounded=0;orthogonalLoop=1;jettySize=auto;html=1;entryX=0;entryY=0.5;entryDx=0;entryDy=0;" edge="1" parent="1" source="38" target="37">
                    <mxGeometry relative="1" as="geometry"/>
                </mxCell>
                <mxCell id="55" style="edgeStyle=orthogonalEdgeStyle;curved=1;rounded=0;orthogonalLoop=1;jettySize=auto;html=1;startArrow=none;startFill=0;endArrow=block;endFill=0;" edge="1" parent="1" source="38" target="5">
                    <mxGeometry relative="1" as="geometry">
                        <mxPoint x="510.0000000000002" y="-539.9999999999999" as="targetPoint"/>
                    </mxGeometry>
                </mxCell>
                <mxCell id="38" value="Admin" style="shape=umlActor;verticalLabelPosition=bottom;verticalAlign=top;html=1;outlineConnect=0;" vertex="1" parent="1">
                    <mxGeometry x="620" y="-570" width="30" height="60" as="geometry"/>
                </mxCell>
                <mxCell id="56" style="edgeStyle=orthogonalEdgeStyle;rounded=0;orthogonalLoop=1;jettySize=auto;html=1;startArrow=none;startFill=0;endArrow=block;endFill=0;" edge="1" parent="1">
                    <mxGeometry relative="1" as="geometry">
                        <mxPoint x="490" y="-540" as="targetPoint"/>
                        <mxPoint x="560" y="-600" as="sourcePoint"/>
                        <Array as="points">
                            <mxPoint x="560" y="-540"/>
                        </Array>
                    </mxGeometry>
                </mxCell>
                <mxCell id="41" value="Student" style="shape=umlActor;verticalLabelPosition=bottom;verticalAlign=top;html=1;outlineConnect=0;" vertex="1" parent="1">
                    <mxGeometry x="545" y="-690" width="30" height="60" as="geometry"/>
                </mxCell>
                <mxCell id="57" style="edgeStyle=orthogonalEdgeStyle;rounded=0;orthogonalLoop=1;jettySize=auto;html=1;startArrow=none;startFill=0;endArrow=block;endFill=0;" edge="1" parent="1">
                    <mxGeometry relative="1" as="geometry">
                        <mxPoint x="490.0000000000002" y="-539.9999999999999" as="targetPoint"/>
                        <mxPoint x="560" y="-480" as="sourcePoint"/>
                        <Array as="points">
                            <mxPoint x="560" y="-540"/>
                        </Array>
                    </mxGeometry>
                </mxCell>
                <mxCell id="42" value="Instructor" style="shape=umlActor;verticalLabelPosition=bottom;verticalAlign=top;html=1;outlineConnect=0;" vertex="1" parent="1">
                    <mxGeometry x="545" y="-470" width="30" height="60" as="geometry"/>
                </mxCell>
            </root>
        </mxGraphModel>
    </diagram>
</mxfile>